<svg viewBox="0 0 720 720" fill="none" xmlns="http://www.w3.org/2000/svg">
<rect width="720" height="720" rx="130" fill="url(#paint0_linear_304_146)"/>
<path d="M493.666 372.893C436.921 372.893 390.926 418.434 390.926 474.619C390.926 530.805 436.921 576.343 493.666 576.343C550.411 576.343 596.405 530.802 596.405 474.619C596.405 418.436 550.411 372.893 493.666 372.893V372.893ZM226.74 372.893C169.994 372.893 124 418.434 124 474.619C124 530.805 169.994 576.343 226.74 576.343C283.485 576.343 329.479 530.802 329.479 474.619C329.479 418.436 283.485 372.893 226.74 372.893V372.893ZM462.917 245.724C462.917 301.909 416.923 347.45 360.178 347.45C303.433 347.45 257.438 301.909 257.438 245.724C257.438 189.538 303.433 144 360.178 144C416.923 144 462.917 189.541 462.917 245.724Z" fill="url(#paint1_radial_304_146)"/>
<defs>
<linearGradient id="paint0_linear_304_146" x1="793" y1="88.5" x2="-5.49591e-05" y2="657.5" gradientUnits="userSpaceOnUse">
<stop stop-color="#FFB900"/>
<stop offset="0.6" stop-color="#F95D8F"/>
<stop offset="1" stop-color="#F95353"/>
</linearGradient>
<radialGradient id="paint1_radial_304_146" cx="0" cy="0" r="1" gradientUnits="userSpaceOnUse" gradientTransform="translate(360.135 379.25) scale(312.919 286.45)">
<stop stop-color="white"/>
<stop offset="0.6" stop-color="white"/>
<stop offset="1" stop-color="white" stop-opacity="0.5"/>
</radialGradient>
</defs>
</svg>
