<svg xmlns="http://www.w3.org/2000/svg" viewBox="0 0 379.000000 379.000000" preserveAspectRatio="xMidYMid meet"><g transform="translate(0.000000,379.000000) scale(0.100000,-0.100000)" fill="#000000" stroke="none"><path d="M1825 3230 l-1560 -5 -50 -27 c-62 -32 -129 -103 -158 -166 l-22 -47 0 -1050 0 -1050 26 -56 c48 -103 135 -168 250 -189 37 -7 589 -9 1620 -8 1755 3 1597 -4 1705 78 40 30 61 56 86 107 l33 68 6 550 c12 1031 10 1453 -6 1529 -23 111 -78 187 -165 231 -47 24 -147 47 -184 43 -12 -2 -723 -5 -1581 -8z m96 -365 c59 -20 123 -75 152 -129 17 -32 22 -57 21 -116 0 -129 -48 -199 -223 -329 l-83 -61 156 0 156 0 0 -105 0 -105 -320 0 -320 0 0 99 0 98 123 93 c205 156 267 226 267 304 0 61 -75 97 -126 61 -26 -17 -54 -74 -54 -107 l0 -24 -102 21 -103 22 3 33 c9 116 124 232 256 260 53 12 139 5 197 -15z m739 -11 c30 -14 68 -37 84 -52 32 -30 76 -116 76 -148 0 -23 -10 -26 -115 -39 -27 -3 -59 -8 -71 -10 -17 -4 -23 3 -33 35 -6 22 -20 44 -31 50 -29 16 -75 12 -93 -8 -24 -26 -47 -98 -47 -144 l0 -40 30 25 c45 38 121 51 194 32 125 -33 186 -114 186 -250 0 -178 -125 -295 -315 -295 -142 0 -255 69 -311 192 -26 58 -29 73 -30 193 -3 146 11 227 51 307 29 58 94 131 137 154 77 40 197 39 288 -2z m863 1 c0 -11 -4 -59 -8 -107 l-7 -88 -173 0 -173 0 -7 -51 c-4 -27 -5 -53 -2 -55 3 -3 20 3 39 13 50 27 170 24 224 -4 61 -33 121 -106 140 -171 20 -68 13 -157 -17 -219 -28 -58 -108 -128 -172 -150 -75 -26 -195 -23 -272 7 -81 31 -166 116 -184 183 -8 26 -11 50 -8 53 2 3 49 12 103 20 92 14 100 14 109 -2 6 -10 22 -31 37 -48 22 -26 34 -31 71 -31 77 0 125 68 97 136 -25 60 -126 80 -171 35 l-24 -24 -90 14 c-49 8 -91 17 -94 19 -4 4 11 246 26 423 l6 72 276 -2 c269 -3 276 -4 274 -23z m-2963 -140 l0 -155 95 0 95 0 0 155 0 155 130 0 130 0 0 -425 0 -425 -130 0 -130 0 0 165 0 165 -95 0 -95 0 0 -165 0 -165 -130 0 -130 0 0 425 0 425 130 0 130 0 0 -155z m800 -580 l0 -115 -117 0 -118 0 0 115 0 115 118 0 117 0 0 -115z m1561 -459 c80 -34 125 -90 138 -176 l8 -48 -60 -6 c-101 -10 -105 -9 -112 24 -9 42 -52 90 -80 90 -56 0 -104 -119 -91 -228 11 -96 61 -157 111 -134 28 13 55 51 58 81 1 24 14 25 114 15 l60 -7 -8 -43 c-11 -61 -32 -97 -76 -133 -50 -42 -131 -65 -203 -58 -162 14 -261 152 -247 344 10 149 72 251 174 289 47 18 162 12 214 -10z m-1919 -101 l-4 -115 76 0 76 0 0 115 0 115 95 0 95 0 0 -315 0 -315 -95 0 -95 0 0 125 0 125 -75 0 -74 0 2 -125 2 -125 -92 0 -93 0 0 315 0 315 93 0 92 0 -3 -115z m888 45 l0 -70 -140 0 -140 0 0 -50 0 -50 115 0 115 0 0 -70 0 -70 -115 0 -115 0 0 -50 0 -50 140 0 140 0 0 -75 0 -75 -230 0 -230 0 0 315 0 315 230 0 230 0 0 -70z m290 -117 c28 -104 54 -195 57 -203 4 -13 30 70 100 328 l17 62 78 0 c57 0 76 -3 73 -12 -7 -21 -141 -466 -165 -546 l-21 -73 -96 3 -96 3 -74 235 c-40 129 -84 270 -97 313 l-24 77 97 0 98 0 53 -187z"></path><path d="M2456 2354 c-20 -21 -26 -36 -26 -71 0 -112 136 -141 170 -37 33 100 -72 179 -144 108z"></path></g></svg>