<svg width="504" height="46" viewBox="0 0 504 46" fill="none" xmlns="http://www.w3.org/2000/svg">
<path d="M17.7 31.1998V45.3998H0.699951L0.79995 33.6998V12.5998C0.79995 9.39982 1.99995 6.5998 4.19995 4.2998C6.49995 1.9998 9.19995 0.899811 12.4 0.899811L43.7 0.799805L54.0999 0.899811C57.2999 0.899811 60.1 1.9998 62.4 4.2998C64.7 6.5998 65.8 9.29982 65.8 12.5998V33.6998L65.7 45.3998H49V31.1998H17.7ZM27.7 21.6998H49.0999V11.8998H17.5999V21.6998H27.7Z" fill="#ffffff"/>
<path d="M92.1 45.3994H73.3V0.899414H126.8C130.4 0.899414 133.5 1.99941 136.1 4.29941C138.7 6.59941 140 9.29942 140 12.4994V17.7994C140 20.9994 138.7 23.6994 136.1 25.9994C133.5 28.2994 130.4 29.3994 126.8 29.3994L101.5 29.2994L92 29.1994L92.1 45.3994ZM121 11.5994H92L91.9 18.8994L101.4 18.9994H121V11.5994Z" fill="#ffffff"/>
<path d="M163.4 31.1998V45.3998H146.4L146.5 33.6998V12.5998C146.5 9.39982 147.6 6.5998 149.9 4.2998C152.2 1.9998 154.9 0.899811 158.1 0.899811L189.4 0.799805L199.8 0.899811C203 0.899811 205.8 1.9998 208.1 4.2998C210.4 6.5998 211.5 9.29982 211.5 12.5998V33.6998L211.4 45.3998H194.7V31.1998H163.4ZM173.4 21.6998H194.8V11.9998H163.3V21.6998H173.4Z" fill="#ffffff"/>
<path d="M267.9 11.9994H236V45.3994H219.2L219.1 19.0994V11.9994L219.2 0.899414H273C276.2 0.899414 278.9 1.99941 281.2 4.29941C283.5 6.59941 284.6 9.29943 284.6 12.5994V45.3994H267.6L267.9 11.9994Z" fill="#ffffff"/>
<path d="M357.2 11.8994H334L334.1 45.3994H315.3V11.9994H292.3V0.899414H357.2V11.8994Z" fill="#ffffff"/>
<path d="M381.3 31.1998V45.3998H364.3L364.4 33.6998V12.5998C364.4 9.39982 365.5 6.5998 367.8 4.2998C370.1 1.9998 372.8 0.899811 376 0.899811L407.3 0.799805L417.7 0.899811C420.9 0.899811 423.7 1.9998 426 4.2998C428.3 6.5998 429.4 9.29982 429.4 12.5998V33.6998L429.3 45.3998H412.6V31.1998H381.3ZM391.4 21.6998H412.8V11.9998H381.3V21.7998L391.4 21.6998Z" fill="#ffffff"/>
<path d="M454 34.2998H485.8L502.4 34.1998V45.2998H448.8C445.6 45.2998 442.8 44.1998 440.5 41.8998C438.2 39.5998 437.1 36.8998 437.1 33.5998V12.4998C437.1 9.19982 438.2 6.49983 440.5 4.19983C442.8 1.89983 445.5 0.799805 448.7 0.799805H502.5L502.4 11.8998H453.8L454 34.2998Z" fill="#ffffff"/>
</svg>
