<svg width="119" height="25" viewBox="0 0 119 25" fill="none" xmlns="http://www.w3.org/2000/svg">
<path d="M36.8693 13.0848H43.6423V11.2935H36.8693V6.79229H44.3713V5.00098H34.8721V20.0016H44.4759V18.2103H36.8693V13.0848Z" fill="white"/>
<path d="M50.9549 18.2921C50.9124 18.4261 50.8732 18.4588 50.7457 18.4588C50.6182 18.4588 50.579 18.4261 50.5365 18.2921L47.4311 9.16553H45.5352V9.58067L49.1505 19.9984H52.3376L55.9529 9.58067V9.16553H54.057L50.9549 18.2921Z" fill="white"/>
<path d="M62.392 18.6876C60.0581 18.6876 58.9336 17.2722 58.7865 15.105H67.5175V14.0622C67.5175 11.0418 65.7262 8.85498 62.3495 8.85498C58.9729 8.85498 56.8906 11.0418 56.8906 14.5852C56.8906 18.1286 58.8683 20.3155 62.392 20.3155C65.8308 20.3155 67.2462 18.2104 67.56 16.5661H65.602C65.298 17.792 64.4154 18.6876 62.392 18.6876ZM62.3528 10.4796C64.5396 10.4796 65.5628 11.7283 65.6445 13.5425H58.8323C59.0611 11.542 60.3817 10.4796 62.3528 10.4796Z" fill="white"/>
<path d="M71.6848 10.6141C71.6423 10.7187 71.5998 10.7808 71.4756 10.7808C71.371 10.7808 71.3285 10.7383 71.3285 10.6337V9.16603H69.4521V19.9989H71.3285V13.8535C71.3285 11.7713 72.2862 10.9573 74.1004 10.9573H75.6008V9.12354H74.3913C72.9138 9.1268 72.1653 9.56156 71.6848 10.6141Z" fill="white"/>
<path d="M81.8516 18.6455C79.6648 18.6455 78.184 17.1876 78.184 14.5823C78.184 11.9771 79.6648 10.5192 81.8516 10.5192C83.9339 10.5192 84.8949 11.6011 85.0812 13.1244H87.0196C86.8954 10.833 85.0812 8.85205 81.8516 8.85205C78.6024 8.85205 76.2881 10.8951 76.2881 14.5823C76.2881 18.2696 78.5991 20.3126 81.8516 20.3126C85.1008 20.3126 86.9347 18.3317 87.1014 15.7297H85.163C85.0191 17.4393 83.9568 18.6455 81.8516 18.6455Z" fill="white"/>
<path d="M93.7502 8.85498C90.6252 8.85498 89.1673 10.4371 89.0823 12.4997H91.0207C91.0632 11.3752 91.8347 10.4796 93.7502 10.4796C95.6657 10.4796 96.4601 11.3752 96.4601 12.9181V13.5L92.5015 13.6667C89.7917 13.7811 88.543 14.9383 88.543 16.8113C88.543 18.8936 90.1153 20.3122 92.8023 20.3122C94.2503 20.3122 95.3454 19.8742 96.1267 18.8543C96.2116 18.7399 96.2509 18.7203 96.3359 18.7203C96.4209 18.7203 96.4601 18.7726 96.4601 18.8445V20.0017H98.2939V13.0227C98.2906 10.4371 96.8752 8.85498 93.7502 8.85498ZM96.4568 15.2096C96.4568 17.501 95.1035 18.6876 93.018 18.6876C91.3509 18.6876 90.4127 17.9587 90.4127 16.8113C90.4127 15.8732 91.0371 15.3109 92.495 15.2488L96.4535 15.0821V15.2096H96.4568Z" fill="white"/>
<path d="M105.822 13.804L104.279 13.5131C102.798 13.2319 102.154 12.9181 102.154 12.0225C102.154 11.1268 102.883 10.46 104.632 10.46C106.381 10.46 107.381 11.1268 107.528 12.6043H109.444C109.215 9.95984 107.195 8.85498 104.632 8.85498C102.069 8.85498 100.278 9.95984 100.278 12.0421C100.278 14.1243 101.746 14.8435 103.861 15.239L105.404 15.5299C106.904 15.811 107.653 16.1347 107.653 17.0728C107.653 18.011 106.904 18.7072 105.09 18.7072C103.279 18.7072 102.079 17.9587 101.913 16.5596H100.007C100.206 19.1028 102.298 20.309 105.09 20.309C107.881 20.309 109.529 19.1126 109.529 16.9649C109.532 14.8239 107.803 14.1766 105.822 13.804Z" fill="white"/>
<path d="M114.928 10.8329H118.053V9.1658H114.928V6.25H113.051V9.1658H110.551V10.8329H113.051V16.8737C113.051 18.9886 114.061 19.9987 116.176 19.9987H118.053V18.3316H117.324H115.228C115.124 18.3316 115.072 18.312 115.009 18.2499C114.947 18.1976 114.915 18.1257 114.915 18.0211C114.915 17.8118 114.924 17.3967 114.924 15.9388V10.8329H114.928Z" fill="white"/>
<path d="M0 25H22.5026V20.002H5.00131V5.00131H22.5026V0H0V25Z" fill="white"/>
<path d="M22.4173 9.53174H9.21777V14.8436H22.4173V9.53174Z" fill="white"/>
</svg>
