<?xml version="1.0" encoding="UTF-8" standalone="no"?>
<svg
   xmlns:dc="http://purl.org/dc/elements/1.1/"
   xmlns:cc="http://creativecommons.org/ns#"
   xmlns:rdf="http://www.w3.org/1999/02/22-rdf-syntax-ns#"
   xmlns:svg="http://www.w3.org/2000/svg"
   xmlns="http://www.w3.org/2000/svg"
   xmlns:sodipodi="http://sodipodi.sourceforge.net/DTD/sodipodi-0.dtd"
   xmlns:inkscape="http://www.inkscape.org/namespaces/inkscape"
   preserveAspectRatio="xMinYMid meet"
   width="1000"
   height="241.24907"
   viewBox="0 0 1000 241.24907"
   class="B2PR0"
   version="1.1"
   id="svg1691"
   sodipodi:docname="A.svg"
   style="fill:none"
   inkscape:version="0.92.4 (5da689c313, 2019-01-14)">
  <metadata
     id="metadata1695">
    <rdf:RDF>
      <cc:Work
         rdf:about="">
        <dc:format>image/svg+xml</dc:format>
        <dc:type
           rdf:resource="http://purl.org/dc/dcmitype/StillImage" />
        <dc:title>Frame.io</dc:title>
      </cc:Work>
    </rdf:RDF>
  </metadata>
  <sodipodi:namedview
     pagecolor="#ffffff"
     bordercolor="#111111"
     borderopacity="1"
     objecttolerance="10"
     gridtolerance="10"
     guidetolerance="10"
     inkscape:pageopacity="0"
     inkscape:pageshadow="2"
     inkscape:window-width="1920"
     inkscape:window-height="1017"
     id="namedview1693"
     showgrid="false"
     fit-margin-top="0"
     fit-margin-left="0"
     fit-margin-right="0"
     fit-margin-bottom="0"
     inkscape:zoom="0.87989603"
     inkscape:cx="372.10914"
     inkscape:cy="-198.55426"
     inkscape:window-x="1912"
     inkscape:window-y="-8"
     inkscape:window-maximized="1"
     inkscape:current-layer="svg1691" />
  <title
     id="title1658">Frame.io</title>
  <path
     inkscape:connector-curvature="0"
     style="fill:#030303;fill-opacity:1;stroke-width:7.53903341"
     id="path1660"
     d="M 335.15904,56.05588 H 353.791 c 0.97555,0 1.76715,-0.79129 1.76715,-1.76745 V 39.20004 c 0,-0.97608 -0.7916,-1.76738 -1.76715,-1.76738 h -18.63196 c -22.59901,0 -34.79867,11.81472 -34.79867,33.84219 v 6.27768 c 0,0.48778 -0.3958,0.88358 -0.88358,0.88358 H 284.5284 c -0.97631,0 -1.76791,0.79084 -1.76791,1.76715 v 14.88808 c 0,0.9763 0.7916,1.7679 1.76791,1.7679 h 14.94839 c 0.48778,0 0.88358,0.39505 0.88358,0.88358 v 84.45752 c 0,0.97556 0.79084,1.76715 1.76715,1.76715 h 17.0646 c 0.9763,0 1.76715,-0.79159 1.76715,-1.76715 V 97.74282 c 0,-0.48853 0.3958,-0.88358 0.88357,-0.88358 h 32.399 c 0.9763,0 1.76715,-0.7916 1.76715,-1.7679 V 80.20326 c 0,-0.97631 -0.79085,-1.76715 -1.76715,-1.76715 h -32.399 c -0.48777,0 -0.88357,-0.3958 -0.88357,-0.88358 v -6.27768 c 0,-9.81227 4.99988,-15.21897 14.19977,-15.21897 z" />
  <path
     inkscape:connector-curvature="0"
     style="fill:#030303;fill-opacity:1;stroke-width:7.53903341"
     id="path1662"
     d="m 422.60579,76.83406 c -17.11285,0 -28.34375,6.92913 -34.49711,19.98296 -0.38599,0.81874 -1.66838,0.66796 -1.80635,-0.22617 l -2.66354,-17.2576 c -0.13269,-0.86171 -0.87453,-1.498 -1.74679,-1.498 h -11.9162 c -0.9763,0 -1.7679,0.79159 -1.7679,1.76714 v 102.59796 c 0,0.97555 0.7916,1.76715 1.7679,1.76715 h 17.0646 c 0.97555,0 1.76715,-0.7916 1.76715,-1.76715 v -50.49796 c 0,-22.62841 10.39934,-34.84315 33.99878,-34.84315 h 1.6322 c 0.97631,0 1.76715,-0.7916 1.76715,-1.7679 V 78.60121 c 0,-0.9763 -0.79084,-1.76715 -1.76715,-1.76715 z" />
  <path
     inkscape:connector-curvature="0"
     style="fill:#030303;fill-opacity:1;stroke-width:7.53903341"
     id="path1664"
     d="m 531.31187,167.34694 c -3.99946,0 -6.19935,-2.40344 -6.19935,-6.60871 v -44.45542 c 0,-26.23207 -16.59944,-41.65158 -44.59866,-41.65158 -25.58522,0 -44.59489,13.54229 -47.74545,33.70016 -0.16209,1.03586 0.65891,1.94432 1.70759,1.94432 h 16.69444 c 0.43047,0 0.79612,-0.31212 0.88282,-0.73355 2.30543,-11.1917 12.59244,-18.29045 27.86049,-18.29045 15.79956,0 25.79933,8.61108 25.79933,22.02755 0,15.21904 -75.99723,-3.00355 -75.99723,41.45186 0,18.42314 16.19913,31.23874 39.79856,31.23874 19.14161,0 32.05296,-7.01884 39.11703,-18.94031 0.0777,-0.13118 0.28121,-0.0777 0.28121,0.0746 v 0 c 0,11.01377 6.2001,16.86331 17.59987,16.86331 h 7.63176 c 0.97631,0 1.76791,-0.7916 1.76791,-1.76715 V 169.1141 c 0,-0.97631 -0.7916,-1.76715 -1.76791,-1.76715 z m -57.59746,3.60441 c -15.19945,0 -23.99901,-6.8085 -23.99901,-17.42195 0,-22.99103 45.55687,-12.80806 54.82762,-21.62948 0.34303,-0.32569 1.17006,-0.0739 1.17006,0.39881 v 9.21571 c -0.19978,18.02282 -12.99955,29.43691 -31.99867,29.43691 z" />
  <path
     inkscape:connector-curvature="0"
     style="fill:#030303;fill-opacity:1;stroke-width:7.53903341"
     id="path1666"
     d="m 667.94177,74.63123 c -16.02346,0 -29.56432,7.64677 -36.33362,19.76501 -0.18546,0.33247 -0.68228,0.30232 -0.82703,-0.0498 -5.12956,-12.45976 -15.36681,-19.71525 -29.03659,-19.71525 -14.99966,0 -28.7991,7.80961 -35.7991,20.02511 l -2.09886,-16.05211 c -0.0581,-0.44028 -0.43274,-0.76898 -0.87679,-0.76898 h -13.45567 c -0.9763,0 -1.7679,0.79159 -1.7679,1.76714 v 102.59796 c 0,0.97555 0.7916,1.76715 1.7679,1.76715 h 17.06385 c 0.9763,0 1.7679,-0.7916 1.7679,-1.76715 v -61.71223 c 0.19979,-16.22023 12.39945,-28.03465 27.99846,-28.03465 11.19999,0 17.19955,8.21001 17.19955,23.42906 v 66.31786 c 0,0.97555 0.7916,1.76715 1.76715,1.76715 h 17.06461 c 0.9763,0 1.76714,-0.7916 1.76714,-1.76715 v -64.11496 c 0,-14.81872 12.19967,-25.63196 27.5989,-25.63196 11.19999,0 17.19955,8.21001 17.19955,23.42906 v 66.31786 c 0,0.97555 0.7916,1.76715 1.76715,1.76715 h 17.0646 c 0.9763,0 1.7679,-0.7916 1.7679,-1.76715 v -70.52314 c 0,-22.62765 -12.19966,-37.04598 -31.5991,-37.04598 z" />
  <path
     inkscape:connector-curvature="0"
     style="fill:#030303;fill-opacity:1;stroke-width:7.53903341"
     id="path1668"
     d="m 815.22583,127.69766 c -0.59558,-32.84154 -20.19707,-53.06643 -50.39844,-53.06643 -29.19716,0 -52.59606,21.02629 -52.59606,56.67084 0,32.44046 21.79911,55.66898 54.19434,55.66898 24.20784,0 42.4146,-13.8952 47.90302,-35.32188 0.27894,-1.08864 -0.55789,-2.1245 -1.68121,-2.1245 h -16.08829 c -0.78406,0 -1.47766,0.52547 -1.7189,1.2756 -3.87507,11.87775 -13.34409,19.34968 -28.41462,19.34968 -19.70854,0 -32.62064,-13.617 -34.32824,-35.10023 -0.0399,-0.50813 0.36414,-0.94464 0.87453,-0.94464 h 80.48974 c 0.97253,0 1.76413,-0.79084 1.76413,-1.76715 z M 764.82739,90.85139 c 15.68119,0 26.94451,10.39029 30.02797,27.20988 0.098,0.53527 -0.32417,1.0253 -0.86699,1.0253 h -59.87349 c -0.5594,0 -0.97781,-0.51717 -0.85342,-1.063 3.84642,-16.79772 15.30876,-27.17218 31.56593,-27.17218 z" />
  <path
     inkscape:connector-curvature="0"
     style="fill:#030303;fill-opacity:1;stroke-width:7.53903341"
     id="path1670"
     d="m 833.13858,185.56954 c 8.20246,0 14.19599,-6.20764 14.19599,-14.21786 0,-8.01023 -5.99353,-14.01733 -14.19599,-14.01733 -7.99892,0 -14.20354,6.0071 -14.20354,14.01733 0,8.01022 6.20462,14.21786 14.20354,14.21786 z" />
  <path
     inkscape:connector-curvature="0"
     style="fill:#030303;fill-opacity:1;stroke-width:7.53903341"
     id="path1672"
     d="m 865.16439,64.57574 c 7.99891,0 13.99998,-6.20779 13.99998,-14.01747 0,-8.01 -6.00107,-14.01748 -13.99998,-14.01748 -7.99892,0 -13.99999,6.00748 -13.99999,14.01748 0,7.80968 6.00107,14.01747 13.99999,14.01747 z m -6.80021,13.25951 h -9.8309 c -0.98007,0 -1.76413,0.79159 -1.76413,1.76714 V 95.6922 c 0,0.9763 0.78406,1.76715 1.76413,1.76715 h 3.43026 c 4.59881,0 7.19978,3.0043 7.19978,8.81162 v 75.92938 c 0,0.97555 0.7916,1.76715 1.77167,1.76715 h 17.06083 c 0.98008,0 1.77168,-0.7916 1.77168,-1.76715 v -80.73551 c 0,-15.41959 -7.40333,-23.62959 -21.40332,-23.62959 z" />
  <path
     inkscape:connector-curvature="0"
     style="fill:#030303;fill-opacity:1;stroke-width:7.53903341"
     id="path1674"
     d="m 945.9979,186.97105 c 31.79965,0 54.0021,-23.42906 54.0021,-57.07124 0,-32.64025 -22.20245,-55.26858 -54.0021,-55.26858 -31.59608,0 -53.59498,22.62833 -53.59498,55.26858 0,33.64218 21.9989,57.07124 53.59498,57.07124 z m 0.20356,-17.22142 c -20.60418,0 -33.79749,-15.61937 -33.79749,-39.84982 0,-23.22852 13.19331,-38.04724 33.79749,-38.04724 20.59664,0 33.79748,14.81872 33.79748,38.04724 0,24.23045 -13.20084,39.84982 -33.79748,39.84982 z" />
  <path
     inkscape:connector-curvature="0"
     style="fill:#5d55ff;fill-opacity:1;stroke-width:7.53903341"
     id="path1676"
     d="m 13.752103,241.24907 c -9.81616,0 -16.3210717,-10.27495 -12.77135555,-19.42658 C 13.154258,190.43674 19.83158,156.31055 19.83158,120.62454 19.83158,84.93852 13.154258,50.81211 0.98073992,19.42658 -2.5689762,10.2748 3.9359355,0 13.752103,0 c 5.342461,0 10.195035,3.17683 12.15164,8.14819 13.70928,34.83327 21.239116,72.7758 21.239116,112.47635 0,39.70055 -7.529836,77.64299 -21.239116,112.47634 -1.956605,4.97124 -6.809179,8.14819 -12.15164,8.14819 z" />
  <path
     inkscape:connector-curvature="0"
     style="fill:#5d55ff;fill-opacity:1;stroke-width:7.53903341"
     id="path1678"
     d="m 79.240519,213.93817 c -8.992558,0 -15.471378,-8.62918 -13.438703,-17.38954 5.66008,-24.39254 8.652247,-49.80888 8.652247,-75.92409 0,-26.11521 -2.992167,-51.53126 -8.652247,-75.9244 -2.032675,-8.75991 4.446145,-17.38893 13.438703,-17.38893 6.120188,0 11.500796,4.1099 12.90381,10.06709 6.292077,26.72746 9.620561,54.59791 9.620561,83.24624 0,28.64832 -3.328484,56.51862 -9.620561,83.246 -1.403014,5.95735 -6.783622,10.06763 -12.90381,10.06763 z" />
  <path
     inkscape:connector-curvature="0"
     style="fill:#5d55ff;fill-opacity:1;stroke-width:7.53903341"
     id="path1680"
     d="m 141.13221,172.97106 c -8.22885,0 -14.55259,-7.2518 -13.7821,-15.44446 1.14216,-12.14689 1.72644,-24.45663 1.72644,-36.90206 0,-12.44544 -0.58428,-24.75517 -1.72644,-36.90206 -0.77049,-8.19267 5.55325,-15.44447 13.7821,-15.44447 6.85449,0 12.66181,5.10084 13.31921,11.92374 1.28089,13.30187 1.93603,26.78543 1.93603,40.42279 0,13.63735 -0.65514,27.12092 -1.93603,40.42279 -0.6574,6.82282 -6.46472,11.92373 -13.31921,11.92373 z" />
  <path
     inkscape:connector-curvature="0"
     style="fill:#5d55ff;fill-opacity:1;stroke-width:7.53903341"
     id="path1682"
     d="m 199.24007,103.16489 7.80365,7.80365 c 5.33311,5.33312 5.33311,13.97888 0,19.31199 l -7.80365,7.80365 c -5.73495,5.7357 -15.54097,1.67367 -15.54097,-6.43682 v -22.04564 c 0,-8.1105 9.80602,-12.17253 15.54097,-6.43683 z" />
  <defs
     id="defs1689">
    <clipPath
       id="clip0_22_412">
      <rect
         width="133"
         height="32"
         id="rect1686"
         x="0"
         y="0"
         style="fill:#ffffff" />
    </clipPath>
  </defs>
</svg>
