<svg preserveAspectRatio="xMinYMid meet" role="img" xmlns="http://www.w3.org/2000/svg" fill="none" viewBox="0 0 133 32" width="100%" height="100%"><path fill="#F5F5F8" d="M64.115 18.059c1.743-.133 2.35-.37 2.798-.74v1.294c0 2.06-1.584 3.67-4.119 3.67-1.874 0-2.931-.713-2.931-1.98 0-1.875 2.165-2.085 4.252-2.244Zm37.362-5.65c1.981 0 3.406 1.24 3.723 3.3h-7.578c.396-2.111 1.769-3.3 3.855-3.3Zm-61.629.396v11.538h2.746V12.805h4.648V10.35h-4.648v-.844c0-1.294.66-2.007 1.875-2.007h2.72V5.017h-2.72c-2.984 0-4.622 1.558-4.622 4.489v.844h-2.324v2.455h2.327Zm9.005-2.428h2.033l.423 2.904c.792-1.98 2.324-3.036 4.753-3.036h.501v2.667h-.476c-3.115 0-4.489 1.611-4.489 4.621v6.813h-2.745v-13.97Zm13.44 14.231c2.851 0 4.251-.924 4.965-2.323.263 1.293 1.083 2.06 2.587 2.06h1.268v-2.482h-.607c-.555 0-.845-.317-.845-.898v-5.598c0-3.379-2.191-5.412-5.915-5.412-3.486 0-6.073 1.928-6.364 4.726h2.825c.29-1.558 1.4-2.297 3.46-2.297 2.058 0 3.247.924 3.247 2.693 0 .634-1.188.793-2.904.95-3.539.344-6.998.714-6.998 4.436 0 2.455 2.165 4.145 5.28 4.145ZM72.67 10.377h2.138l.264 2.217c.95-1.61 2.772-2.64 4.753-2.64 1.821 0 3.168.95 3.855 2.614.026.053.08.053.106 0 .897-1.61 2.694-2.614 4.779-2.614 2.535 0 4.251 1.9 4.251 4.911v9.478h-2.745v-8.818c0-2.007-.793-3.115-2.271-3.115-2.06 0-3.671 1.452-3.671 3.406v8.527h-2.746v-8.818c0-2.007-.791-3.115-2.27-3.115-2.06 0-3.697 1.584-3.697 3.723v8.21H72.67V10.377Zm29.018 14.363c3.301 0 5.783-1.98 6.417-4.965h-2.826c-.475 1.61-1.69 2.429-3.591 2.429-2.482 0-3.987-1.558-4.145-4.278 0-.053.053-.106.132-.106h10.483v-.897c0-4.225-2.694-6.97-6.681-6.97-3.986 0-6.917 2.772-6.917 7.472 0 4.225 2.825 7.313 7.129 7.313l-.001.002Zm8.845-3.935c1.083 0 1.875.793 1.875 1.875 0 1.082-.793 1.874-1.875 1.874-1.082 0-1.901-.818-1.901-1.874 0-1.057.818-1.875 1.901-1.875Zm1.795-10.428h1.532c1.874 0 2.851 1.083 2.851 3.141v10.825h-2.746V14.1c0-.766-.344-1.161-.951-1.161h-.687v-2.561h.001Zm13.15-.397c4.436 0 7.024 3.09 7.024 7.234 0 4.673-2.931 7.393-7.024 7.393-4.462 0-7.023-3.115-7.023-7.393 0-4.594 3.01-7.234 7.023-7.234Zm0 12.172c2.721 0 4.172-2.086 4.172-4.938 0-2.851-1.557-4.779-4.172-4.779-2.614 0-4.172 1.848-4.172 4.78 0 3.194 1.743 4.937 4.172 4.937Zm-10.693-17.24c1.056 0 1.848.79 1.848 1.847s-.793 1.848-1.848 1.848c-1.055 0-1.875-.818-1.875-1.848 0-1.03.793-1.848 1.875-1.848ZM2.64 16c0 4.726-.872 9.267-2.508 13.413-.079.21-.132.448-.132.686C0 31.076.766 32 1.847 32c.687 0 1.346-.423 1.61-1.083A41.071 41.071 0 0 0 6.255 16 41.07 41.07 0 0 0 3.457 1.082 1.75 1.75 0 0 0 1.847 0C.765 0 0 .924 0 1.901c0 .238.053.475.132.687C1.768 6.732 2.64 11.275 2.64 16Zm7.23 0c0 3.458-.396 6.838-1.135 10.059a2.28 2.28 0 0 0-.053.422c0 1.003.792 1.901 1.848 1.901.792 0 1.505-.554 1.689-1.346a47.513 47.513 0 0 0 1.293-11.037c0-3.802-.449-7.498-1.293-11.036a1.746 1.746 0 0 0-1.69-1.346c-1.055 0-1.847.87-1.847 1.874 0 .132.027.29.053.423A45.482 45.482 0 0 1 9.87 16Z"></path><path fill="#F5F5F8" fillRule="evenodd" d="M17.128 16c0-1.664-.08-3.274-.238-4.885-.105-1.109.739-2.06 1.821-2.06.924 0 1.69.687 1.769 1.585.184 1.768.264 3.538.264 5.36 0 1.82-.08 3.59-.264 5.359-.08.897-.845 1.584-1.769 1.584-1.082 0-1.926-.977-1.82-2.06.157-1.61.237-3.247.237-4.884Zm0 0v-.002V16Z" clipRule="evenodd"></path><path fill="#F5F5F8" d="M27.472 17.267c.344-.343.528-.819.528-1.267 0-.475-.184-.95-.528-1.294l-1.055-1.03a1.197 1.197 0 0 0-.845-.342 1.21 1.21 0 0 0-1.213 1.214v2.904a1.21 1.21 0 0 0 1.213 1.214c.29 0 .607-.105.845-.343l1.055-1.056Z"></path></svg>