<svg xmlns="http://www.w3.org/2000/svg" viewBox="0 0 315 50.64"><title>OtterBox logo - Brandlogos.net</title><path d="M354,487.32c0-16,12.26-25.85,25.72-25.85a25.33,25.33,0,0,1,25.79,25.32c0,13.56-10.68,25.32-25.85,25.32A25.15,25.15,0,0,1,354,487.39Zm12.46-.59c0,7.46,5,14.44,13.45,14.44,8.83,0,13.12-8,13.12-14.29s-4.28-14.48-13.25-14.48c-8.64,0-13.32,7.4-13.32,14.29Z" transform="translate(-354 -461.48)" style="fill:#231f20"/><path d="M412.55,473.35h-9.62V462.4h31.65v10.93H425v37.82H412.55Z" transform="translate(-354 -461.48)" style="fill:#231f20"/><path d="M446.06,473.35h-9.63V462.4h31.66v10.93h-9.56v37.82H446.06Z" transform="translate(-354 -461.48)" style="fill:#231f20"/><path d="M470.12,462.4h27.6v10.93H482.6v7.56H497.3v10.93H482.6v8.4h15.13v10.93h-27.6Z" transform="translate(-354 -461.48)" style="fill:#231f20"/><path d="M501.13,462.4h16c7.66,0,12.4,1.38,15.13,3.49,4.08,3.17,5.93,8,5.93,13.32a16.13,16.13,0,0,1-2.44,8.84,14,14,0,0,1-6.33,5.21l10.09,17.94H526.61l-12.73-23.53h2.05c3.16,0,5.88-.27,7.51-1.33a7.26,7.26,0,0,0,2.77-6,6.66,6.66,0,0,0-2.9-5.67,10.2,10.2,0,0,0-5-1.32h-4.61v37.82H501.13Z" transform="translate(-354 -461.48)" style="fill:#231f20"/><path d="M540.85,462.4h17.94c5,0,9,1.12,11.77,3.29a11.59,11.59,0,0,1,4.35,9.5,11,11,0,0,1-5.62,9.82c7.84,2.77,8,9.3,8,11.35,0,3.88-1.52,8.17-4.49,10.62-4.48,3.76-7.71,4.2-16,4.2h-16Zm12.46,18.49h4.41a8.85,8.85,0,0,0,3.3-.46,3.36,3.36,0,0,0,2-3.42,3.19,3.19,0,0,0-1.91-3.24,8.67,8.67,0,0,0-3.36-.46h-4.41Zm0,19.33h5.88a9.25,9.25,0,0,0,3.68-.59,4.05,4.05,0,0,0,2.52-4.09,3.61,3.61,0,0,0-2.38-3.69,10.2,10.2,0,0,0-3.82-.53h-5.88Z" transform="translate(-354 -461.48)" style="fill:#231f20"/><path d="M577.57,487.32c0-16,12.28-25.85,25.74-25.85a25.33,25.33,0,0,1,25.79,25.32c0,13.56-10.68,25.32-25.85,25.32a25.16,25.16,0,0,1-25.67-24.73Zm12.46-.59c0,7.46,5.08,14.44,13.45,14.44,8.83,0,13.12-8,13.12-14.29s-4.25-14.48-13.22-14.48c-8.64,0-13.33,7.39-13.33,14.29Z" transform="translate(-354 -461.48)" style="fill:#231f20"/><path d="M637.48,485.22,622.37,462.4h14.12l8.4,13.91L653,462.4h14l-14.9,23.08L669,511.2H654.9l-10.56-17.28-10,17.28H620.44Z" transform="translate(-354 -461.48)" style="fill:#231f20"/></svg>