<?xml version="1.0" encoding="utf-8"?>
<!-- Generator: Adobe Illustrator 22.1.0, SVG Export Plug-In . SVG Version: 6.00 Build 0)  -->
<svg version="1.1" id="Layer_1" xmlns="http://www.w3.org/2000/svg" xmlns:xlink="http://www.w3.org/1999/xlink" x="0px" y="0px"
	 viewBox="0 0 442 77.3" style="enable-background:new 0 0 442 77.3;" xml:space="preserve">
<title>clients</title>
<g>
	<g>
		<polygon points="130.1,1.2 126.6,27 106.3,27 109.9,1.2 84.1,1.2 73.7,76.1 99.4,76.1 103,50.5 123.3,50.5 119.7,76.1 145.5,76.1 
			155.9,1.2 		"/>
		<path d="M201.8,0c-24.9,0-40.9,13.8-44.3,38.2c-3.4,25,8.8,39.1,34.4,39.1c24.8,0,40.8-14,44.2-39.1C239.5,13.7,227.2,0,201.8,0z
			 M212.1,38.1c-1.7,11.5-8.6,18-18.9,18c-9.2,0-13.4-6.5-11.8-18c1.7-11.1,8.2-17.3,18-17.3C209,20.8,213.5,27,212.1,38.1z"/>
		<path d="M325.7,1.2l-12.5,37.3c-0.9,2.7-1.7,5.6-2.5,8.7v-7.3l-0.5-38.8h-27.7l-11.2,37.3c-0.9,3.6-1.6,5.8-2.3,8.6
			c0-2.9,0-4.7-0.1-7.1l-1.8-38.8H240l8,74.9h31l8.1-23c1.4-3.7,2.8-8.4,4.4-13.6c0.1,4.7,0.3,8.8,0.5,12.3l1.7,24.3h33.4l26.4-74.9
			L325.7,1.2z"/>
		<path d="M50.7,30c-3-1-5.5-1.8-7.5-2.4c-4.8-1.5-6.5-2.1-6.5-3s1.3-3.8,3.3-3.8h29.7l3.6-20.2H38.2c-16.6,0-27.7,10.4-27.7,26
			c0,13.3,7.7,18.5,20.2,22.6l4.7,1.5c6.1,1.9,8.8,2.8,8.8,3.8c-0.1,1.8-1.6,3.2-3.4,3.1h-0.1c-1.3,0-3,0-5,0.1
			c-2.8,0.1-6.2,0.1-10.1,0.1c-5.6,0-10.7-0.2-15.6-0.5l-1.4-0.1L0,76.9h42c8.5,0,15.6-2.2,20.6-6.3c5.2-4.3,7.9-10.6,7.9-18.3
			C70.6,38.1,61.6,33.8,50.7,30z"/>
		<path d="M416.2,1.4l-15.3,25.9L386.6,1.2h-27.1l26,44.2l-1.2,1.4L336.5,76c0,0,8.4,0.1,29.2,0.1s36-10.1,49.1-28.1
			S442,1.3,442,1.3L416.2,1.4z"/>
	</g>
</g>
</svg>
